<?xml version="1.0" encoding="UTF-8" standalone="no"?>
<!DOCTYPE svg PUBLIC "-//W3C//DTD SVG 1.1//EN"
 "http://www.w3.org/Graphics/SVG/1.1/DTD/svg11.dtd">
<!-- Generated by graphviz version 2.50.0 (20220117.2223)
 -->
<!-- Title: snakemake_dag Pages: 1 -->
<svg width="1009pt" height="634pt"
 viewBox="0.00 0.00 1009.00 634.00" xmlns="http://www.w3.org/2000/svg" xmlns:xlink="http://www.w3.org/1999/xlink">
<g id="graph0" class="graph" transform="scale(1 1) rotate(0) translate(4 630)">
<title>snakemake_dag</title>
<polygon fill="white" stroke="transparent" points="-4,4 -4,-630 1005,-630 1005,4 -4,4"/>
<!-- 0 -->
<g id="node1" class="node">
<title>0</title>
<text text-anchor="start" x="257.5" y="-107.6" font-family="sans" font-weight="bold" font-size="18.00">all</text>
<text text-anchor="start" x="80.5" y="-83.8" font-family="sans" font-size="10.00"> </text>
<text text-anchor="start" x="84.5" y="-83.8" font-family="sans" font-weight="bold" font-size="14.00">↪ input</text>
<text text-anchor="start" x="142.5" y="-83.8" font-family="sans" font-size="10.00"> </text>
<text text-anchor="start" x="80.5" y="-64" font-family="monospace" font-size="10.00">/ceph/zoo/users/ngrosso/crab_field/metadata_csv/movie_paths.csv</text>
<text text-anchor="start" x="80.5" y="-46" font-family="monospace" font-size="10.00">docs/filegraph.svg</text>
<text text-anchor="start" x="80.5" y="-28" font-family="monospace" font-size="10.00">docs/rulegraph.svg</text>
<text text-anchor="start" x="452.5" y="-10" font-family="sans" font-size="10.00"> &#160;</text>
<polygon fill="#7cd957" stroke="#7cd957" points="74.5,-98 74.5,-98 466.5,-98 466.5,-98 74.5,-98"/>
<polygon fill="#7cd957" stroke="#7cd957" points="74.5,-22 74.5,-22 466.5,-22 466.5,-22 74.5,-22"/>
<polygon fill="none" stroke="#7cd957" stroke-width="2" points="74,-1 74,-127 465,-127 465,-1 74,-1"/>
</g>
<!-- 1 -->
<g id="node2" class="node">
<title>1</title>
<text text-anchor="start" x="7.5" y="-345.6" font-family="sans" font-weight="bold" font-size="18.00">build_filegraph</text>
<text text-anchor="start" x="7.5" y="-324" font-family="sans" font-size="10.00"> &#160;</text>
<text text-anchor="start" x="80.5" y="-303.8" font-family="sans" font-size="10.00"> </text>
<text text-anchor="start" x="84.5" y="-303.8" font-family="sans" font-weight="bold" font-size="14.00">output →</text>
<text text-anchor="start" x="154.5" y="-303.8" font-family="sans" font-size="10.00"> </text>
<text text-anchor="start" x="7.5" y="-284" font-family="monospace" font-size="10.00">docs/filegraph.svg</text>
<polygon fill="#57d9c6" stroke="#57d9c6" points="1.5,-336 1.5,-336 165.5,-336 165.5,-336 1.5,-336"/>
<polygon fill="#57d9c6" stroke="#57d9c6" points="1.5,-318 1.5,-318 165.5,-318 165.5,-318 1.5,-318"/>
<polygon fill="none" stroke="#57d9c6" stroke-width="2" points="1,-275 1,-365 164,-365 164,-275 1,-275"/>
</g>
<!-- 1&#45;&gt;0 -->
<g id="edge3" class="edge">
<title>1&#45;&gt;0</title>
<path fill="none" stroke="grey" stroke-width="2" d="M105.71,-273.85C122.95,-241.96 147.98,-198.87 174.5,-164 181.71,-154.52 189.73,-144.97 197.96,-135.73"/>
<polygon fill="grey" stroke="grey" stroke-width="2" points="200.8,-137.81 204.92,-128.05 195.61,-133.11 200.8,-137.81"/>
</g>
<!-- 2 -->
<g id="node3" class="node">
<title>2</title>
<text text-anchor="start" x="190.5" y="-345.6" font-family="sans" font-weight="bold" font-size="18.00">build_rulegraph</text>
<text text-anchor="start" x="190.5" y="-324" font-family="sans" font-size="10.00"> &#160;</text>
<text text-anchor="start" x="271.5" y="-303.8" font-family="sans" font-size="10.00"> </text>
<text text-anchor="start" x="275.5" y="-303.8" font-family="sans" font-weight="bold" font-size="14.00">output →</text>
<text text-anchor="start" x="345.5" y="-303.8" font-family="sans" font-size="10.00"> </text>
<text text-anchor="start" x="190.5" y="-284" font-family="monospace" font-size="10.00">docs/rulegraph.svg</text>
<polygon fill="#c6d957" stroke="#c6d957" points="184.5,-336 184.5,-336 356.5,-336 356.5,-336 184.5,-336"/>
<polygon fill="#c6d957" stroke="#c6d957" points="184.5,-318 184.5,-318 356.5,-318 356.5,-318 184.5,-318"/>
<polygon fill="none" stroke="#c6d957" stroke-width="2" points="184,-275 184,-365 355,-365 355,-275 184,-275"/>
</g>
<!-- 2&#45;&gt;0 -->
<g id="edge1" class="edge">
<title>2&#45;&gt;0</title>
<path fill="none" stroke="grey" stroke-width="2" d="M269.5,-273.88C269.5,-236.32 269.5,-182.1 269.5,-138.32"/>
<polygon fill="grey" stroke="grey" stroke-width="2" points="273,-138.29 269.5,-128.29 266,-138.29 273,-138.29"/>
</g>
<!-- 3 -->
<g id="node4" class="node">
<title>3</title>
<text text-anchor="start" x="567.5" y="-455.6" font-family="sans" font-weight="bold" font-size="18.00">merge_metadata_to_csv</text>
<text text-anchor="start" x="381.5" y="-431.8" font-family="sans" font-size="10.00"> </text>
<text text-anchor="start" x="385.5" y="-431.8" font-family="sans" font-weight="bold" font-size="14.00">↪ input</text>
<text text-anchor="start" x="443.5" y="-431.8" font-family="sans" font-size="10.00"> </text>
<text text-anchor="start" x="381.5" y="-412" font-family="monospace" font-size="10.00">/ceph/zoo/users/ngrosso/crab_field/metadata_jsons/ramalhete_Sep21_cam&#45;1_mov&#45;NINJAV_S001_S001_T001.json</text>
<text text-anchor="start" x="381.5" y="-394" font-family="monospace" font-size="10.00">/ceph/zoo/users/ngrosso/crab_field/metadata_jsons/ramalhete_Sep21_cam&#45;1_mov&#45;NINJAV_S001_S001_T002.json</text>
<text text-anchor="start" x="381.5" y="-376" font-family="monospace" font-size="10.00">/ceph/zoo/users/ngrosso/crab_field/metadata_jsons/ramalhete_Sep21_cam&#45;1_mov&#45;NINJAV_S001_S001_T003.json</text>
<text text-anchor="start" x="381.5" y="-358" font-family="monospace" font-size="10.00">/ceph/zoo/users/ngrosso/crab_field/metadata_jsons/ramalhete_Sep21_cam&#45;1_mov&#45;NINJAV_S001_S001_T004.json</text>
<text text-anchor="start" x="381.5" y="-340" font-family="monospace" font-size="10.00">/ceph/zoo/users/ngrosso/crab_field/metadata_jsons/ramalhete_Sep21_cam&#45;1_mov&#45;NINJAV_S001_S001_T005.json</text>
<text text-anchor="start" x="381.5" y="-322" font-family="monospace" font-size="10.00">/ceph/zoo/users/ngrosso/crab_field/metadata_jsons/ramalhete_Sep21_cam&#45;1_mov&#45;NINJAV_S001_S001_T006.json</text>
<text text-anchor="start" x="381.5" y="-304" font-family="monospace" font-size="10.00">/ceph/zoo/users/ngrosso/crab_field/metadata_jsons/ramalhete_Sep21_cam&#45;2_mov&#45;NINJAV_S001_S001_T001.json</text>
<text text-anchor="start" x="381.5" y="-286" font-family="monospace" font-size="10.00">/ceph/zoo/users/ngrosso/crab_field/metadata_jsons/ramalhete_Sep21_cam&#45;2_mov&#45;NINJAV_S001_S001_T002.json</text>
<text text-anchor="start" x="381.5" y="-268" font-family="monospace" font-size="10.00">/ceph/zoo/users/ngrosso/crab_field/metadata_jsons/ramalhete_Sep21_cam&#45;2_mov&#45;NINJAV_S001_S001_T003.json</text>
<text text-anchor="start" x="381.5" y="-250" font-family="monospace" font-size="10.00">/ceph/zoo/users/ngrosso/crab_field/metadata_jsons/ramalhete_Sep21_cam&#45;2_mov&#45;NINJAV_S001_S001_T004.json</text>
<text text-anchor="start" x="381.5" y="-232" font-family="monospace" font-size="10.00">/ceph/zoo/users/ngrosso/crab_field/metadata_jsons/ramalhete_Sep21_cam&#45;2_mov&#45;NINJAV_S001_S001_T005.json</text>
<text text-anchor="start" x="381.5" y="-214" font-family="monospace" font-size="10.00">/ceph/zoo/users/ngrosso/crab_field/metadata_jsons/ramalhete_Sep21_cam&#45;2_mov&#45;NINJAV_S001_S001_T006.json</text>
<text text-anchor="start" x="916.5" y="-193.8" font-family="sans" font-size="10.00"> </text>
<text text-anchor="start" x="920.5" y="-193.8" font-family="sans" font-weight="bold" font-size="14.00">output →</text>
<text text-anchor="start" x="990.5" y="-193.8" font-family="sans" font-size="10.00"> </text>
<text text-anchor="start" x="381.5" y="-174" font-family="monospace" font-size="10.00">/ceph/zoo/users/ngrosso/crab_field/metadata_csv/movie_paths.csv</text>
<polygon fill="#d9a157" stroke="#d9a157" points="375.5,-446 375.5,-446 1001.5,-446 1001.5,-446 375.5,-446"/>
<polygon fill="#d9a157" stroke="#d9a157" points="375.5,-208 375.5,-208 1001.5,-208 1001.5,-208 375.5,-208"/>
<polygon fill="none" stroke="#d9a157" stroke-width="2" points="375,-165 375,-475 1000,-475 1000,-165 375,-165"/>
</g>
<!-- 3&#45;&gt;0 -->
<g id="edge2" class="edge">
<title>3&#45;&gt;0</title>
<path fill="none" stroke="grey" stroke-width="2" d="M432.31,-163.93C414.95,-153.39 398.05,-143.11 382.1,-133.42"/>
<polygon fill="grey" stroke="grey" stroke-width="2" points="383.71,-130.3 373.34,-128.1 380.07,-136.28 383.71,-130.3"/>
</g>
<!-- 4 -->
<g id="node5" class="node">
<title>4</title>
<text text-anchor="start" x="599.5" y="-605.6" font-family="sans" font-weight="bold" font-size="18.00">extract_metadata</text>
<text text-anchor="start" x="417.5" y="-581.8" font-family="sans" font-size="10.00"> </text>
<text text-anchor="start" x="421.5" y="-581.8" font-family="sans" font-weight="bold" font-size="14.00">↪ input</text>
<text text-anchor="start" x="479.5" y="-581.8" font-family="sans" font-size="10.00"> </text>
<text text-anchor="start" x="417.5" y="-562" font-family="monospace" font-size="10.00">/nfs/winstor/branco/Tiago/Field/{session}/cam{camera}/{rawmov}.MOV</text>
<text text-anchor="start" x="880.5" y="-541.8" font-family="sans" font-size="10.00"> </text>
<text text-anchor="start" x="884.5" y="-541.8" font-family="sans" font-weight="bold" font-size="14.00">output →</text>
<text text-anchor="start" x="954.5" y="-541.8" font-family="sans" font-size="10.00"> </text>
<text text-anchor="start" x="417.5" y="-522" font-family="monospace" font-size="10.00">/ceph/zoo/users/ngrosso/crab_field/metadata_jsons/{session}_cam&#45;{camera}_mov&#45;{rawmov}.json</text>
<polygon fill="#57d97c" stroke="#57d97c" points="411.5,-596 411.5,-596 965.5,-596 965.5,-596 411.5,-596"/>
<polygon fill="#57d97c" stroke="#57d97c" points="411.5,-556 411.5,-556 965.5,-556 965.5,-556 411.5,-556"/>
<polygon fill="none" stroke="#57d97c" stroke-width="2" points="411,-513 411,-625 964,-625 964,-513 411,-513"/>
</g>
<!-- 4&#45;&gt;3 -->
<g id="edge4" class="edge">
<title>4&#45;&gt;3</title>
<path fill="none" stroke="grey" stroke-width="2" d="M687.5,-511.95C687.5,-503.89 687.5,-495.27 687.5,-486.31"/>
<polygon fill="grey" stroke="grey" stroke-width="2" points="691,-486.08 687.5,-476.08 684,-486.08 691,-486.08"/>
</g>
</g>
</svg>
