<?xml version="1.0" encoding="UTF-8" standalone="no"?>
<!DOCTYPE svg PUBLIC "-//W3C//DTD SVG 1.1//EN"
 "http://www.w3.org/Graphics/SVG/1.1/DTD/svg11.dtd">
<!-- Generated by graphviz version 2.50.0 (20220117.2223)
 -->
<!-- Title: snakemake_dag Pages: 1 -->
<svg width="363pt" height="188pt"
 viewBox="0.00 0.00 363.00 188.00" xmlns="http://www.w3.org/2000/svg" xmlns:xlink="http://www.w3.org/1999/xlink">
<g id="graph0" class="graph" transform="scale(1 1) rotate(0) translate(4 184)">
<title>snakemake_dag</title>
<polygon fill="white" stroke="transparent" points="-4,4 -4,-184 359,-184 359,4 -4,4"/>
<!-- 0 -->
<g id="node1" class="node">
<title>0</title>
<path fill="none" stroke="#d85656" stroke-width="2" d="M168.5,-36C168.5,-36 138.5,-36 138.5,-36 132.5,-36 126.5,-30 126.5,-24 126.5,-24 126.5,-12 126.5,-12 126.5,-6 132.5,0 138.5,0 138.5,0 168.5,0 168.5,0 174.5,0 180.5,-6 180.5,-12 180.5,-12 180.5,-24 180.5,-24 180.5,-30 174.5,-36 168.5,-36"/>
<text text-anchor="middle" x="153.5" y="-15.5" font-family="sans" font-size="10.00">all</text>
</g>
<!-- 1 -->
<g id="node2" class="node">
<title>1</title>
<path fill="none" stroke="#56d8c9" stroke-width="2" d="M77,-108C77,-108 12,-108 12,-108 6,-108 0,-102 0,-96 0,-96 0,-84 0,-84 0,-78 6,-72 12,-72 12,-72 77,-72 77,-72 83,-72 89,-78 89,-84 89,-84 89,-96 89,-96 89,-102 83,-108 77,-108"/>
<text text-anchor="middle" x="44.5" y="-87.5" font-family="sans" font-size="10.00">build_filegraph</text>
</g>
<!-- 1&#45;&gt;0 -->
<g id="edge1" class="edge">
<title>1&#45;&gt;0</title>
<path fill="none" stroke="grey" stroke-width="2" d="M71.16,-71.88C85.28,-62.81 102.81,-51.55 118.06,-41.76"/>
<polygon fill="grey" stroke="grey" stroke-width="2" points="120.21,-44.54 126.73,-36.19 116.43,-38.65 120.21,-44.54"/>
</g>
<!-- 2 -->
<g id="node3" class="node">
<title>2</title>
<path fill="none" stroke="#56d87b" stroke-width="2" d="M187.5,-108C187.5,-108 119.5,-108 119.5,-108 113.5,-108 107.5,-102 107.5,-96 107.5,-96 107.5,-84 107.5,-84 107.5,-78 113.5,-72 119.5,-72 119.5,-72 187.5,-72 187.5,-72 193.5,-72 199.5,-78 199.5,-84 199.5,-84 199.5,-96 199.5,-96 199.5,-102 193.5,-108 187.5,-108"/>
<text text-anchor="middle" x="153.5" y="-87.5" font-family="sans" font-size="10.00">build_rulegraph</text>
</g>
<!-- 2&#45;&gt;0 -->
<g id="edge3" class="edge">
<title>2&#45;&gt;0</title>
<path fill="none" stroke="grey" stroke-width="2" d="M153.5,-71.7C153.5,-63.98 153.5,-54.71 153.5,-46.11"/>
<polygon fill="grey" stroke="grey" stroke-width="2" points="157,-46.1 153.5,-36.1 150,-46.1 157,-46.1"/>
</g>
<!-- 3 -->
<g id="node4" class="node">
<title>3</title>
<path fill="none" stroke="#d8a456" stroke-width="2" d="M343,-108C343,-108 230,-108 230,-108 224,-108 218,-102 218,-96 218,-96 218,-84 218,-84 218,-78 224,-72 230,-72 230,-72 343,-72 343,-72 349,-72 355,-78 355,-84 355,-84 355,-96 355,-96 355,-102 349,-108 343,-108"/>
<text text-anchor="middle" x="286.5" y="-87.5" font-family="sans" font-size="10.00">merge_metadata_to_csv</text>
</g>
<!-- 3&#45;&gt;0 -->
<g id="edge2" class="edge">
<title>3&#45;&gt;0</title>
<path fill="none" stroke="grey" stroke-width="2" d="M253.96,-71.88C234.49,-61.63 209.71,-48.58 189.63,-38.01"/>
<polygon fill="grey" stroke="grey" stroke-width="2" points="191.25,-34.91 180.77,-33.35 187.99,-41.11 191.25,-34.91"/>
</g>
<!-- 4 -->
<g id="node5" class="node">
<title>4</title>
<path fill="none" stroke="#78d856" stroke-width="2" d="M326.5,-180C326.5,-180 246.5,-180 246.5,-180 240.5,-180 234.5,-174 234.5,-168 234.5,-168 234.5,-156 234.5,-156 234.5,-150 240.5,-144 246.5,-144 246.5,-144 326.5,-144 326.5,-144 332.5,-144 338.5,-150 338.5,-156 338.5,-156 338.5,-168 338.5,-168 338.5,-174 332.5,-180 326.5,-180"/>
<text text-anchor="middle" x="286.5" y="-159.5" font-family="sans" font-size="10.00">extract_metadata</text>
</g>
<!-- 4&#45;&gt;3 -->
<g id="edge4" class="edge">
<title>4&#45;&gt;3</title>
<path fill="none" stroke="grey" stroke-width="2" d="M286.5,-143.7C286.5,-135.98 286.5,-126.71 286.5,-118.11"/>
<polygon fill="grey" stroke="grey" stroke-width="2" points="290,-118.1 286.5,-108.1 283,-118.1 290,-118.1"/>
</g>
</g>
</svg>
