<?xml version="1.0" encoding="UTF-8" standalone="no"?>
<!DOCTYPE svg PUBLIC "-//W3C//DTD SVG 1.1//EN"
 "http://www.w3.org/Graphics/SVG/1.1/DTD/svg11.dtd">
<!-- Generated by graphviz version 2.50.0 (20220117.2223)
 -->
<!-- Title: snakemake_dag Pages: 1 -->
<svg width="2402pt" height="204pt"
 viewBox="0.00 0.00 2402.00 204.00" xmlns="http://www.w3.org/2000/svg" xmlns:xlink="http://www.w3.org/1999/xlink">
<g id="graph0" class="graph" transform="scale(1 1) rotate(0) translate(4 200)">
<title>snakemake_dag</title>
<polygon fill="white" stroke="transparent" points="-4,4 -4,-200 2398,-200 2398,4 -4,4"/>
<!-- 0 -->
<g id="node1" class="node">
<title>0</title>
<path fill="none" stroke="#56a2d8" stroke-width="2" d="M1078.5,-36C1078.5,-36 1048.5,-36 1048.5,-36 1042.5,-36 1036.5,-30 1036.5,-24 1036.5,-24 1036.5,-12 1036.5,-12 1036.5,-6 1042.5,0 1048.5,0 1048.5,0 1078.5,0 1078.5,0 1084.5,0 1090.5,-6 1090.5,-12 1090.5,-12 1090.5,-24 1090.5,-24 1090.5,-30 1084.5,-36 1078.5,-36"/>
<text text-anchor="middle" x="1063.5" y="-15.5" font-family="sans" font-size="10.00">all</text>
</g>
<!-- 1 -->
<g id="node2" class="node">
<title>1</title>
<path fill="none" stroke="#c6d856" stroke-width="2" d="M987,-108C987,-108 922,-108 922,-108 916,-108 910,-102 910,-96 910,-96 910,-84 910,-84 910,-78 916,-72 922,-72 922,-72 987,-72 987,-72 993,-72 999,-78 999,-84 999,-84 999,-96 999,-96 999,-102 993,-108 987,-108"/>
<text text-anchor="middle" x="954.5" y="-87.5" font-family="sans" font-size="10.00">build_filegraph</text>
</g>
<!-- 1&#45;&gt;0 -->
<g id="edge1" class="edge">
<title>1&#45;&gt;0</title>
<path fill="none" stroke="grey" stroke-width="2" d="M981.16,-71.88C995.28,-62.81 1012.81,-51.55 1028.06,-41.76"/>
<polygon fill="grey" stroke="grey" stroke-width="2" points="1030.21,-44.54 1036.73,-36.19 1026.43,-38.65 1030.21,-44.54"/>
</g>
<!-- 2 -->
<g id="node3" class="node">
<title>2</title>
<path fill="none" stroke="#56d87b" stroke-width="2" d="M1097.5,-108C1097.5,-108 1029.5,-108 1029.5,-108 1023.5,-108 1017.5,-102 1017.5,-96 1017.5,-96 1017.5,-84 1017.5,-84 1017.5,-78 1023.5,-72 1029.5,-72 1029.5,-72 1097.5,-72 1097.5,-72 1103.5,-72 1109.5,-78 1109.5,-84 1109.5,-84 1109.5,-96 1109.5,-96 1109.5,-102 1103.5,-108 1097.5,-108"/>
<text text-anchor="middle" x="1063.5" y="-87.5" font-family="sans" font-size="10.00">build_rulegraph</text>
</g>
<!-- 2&#45;&gt;0 -->
<g id="edge2" class="edge">
<title>2&#45;&gt;0</title>
<path fill="none" stroke="grey" stroke-width="2" d="M1063.5,-71.7C1063.5,-63.98 1063.5,-54.71 1063.5,-46.11"/>
<polygon fill="grey" stroke="grey" stroke-width="2" points="1067,-46.1 1063.5,-36.1 1060,-46.1 1067,-46.1"/>
</g>
<!-- 3 -->
<g id="node4" class="node">
<title>3</title>
<path fill="none" stroke="#d85656" stroke-width="2" d="M1253,-108C1253,-108 1140,-108 1140,-108 1134,-108 1128,-102 1128,-96 1128,-96 1128,-84 1128,-84 1128,-78 1134,-72 1140,-72 1140,-72 1253,-72 1253,-72 1259,-72 1265,-78 1265,-84 1265,-84 1265,-96 1265,-96 1265,-102 1259,-108 1253,-108"/>
<text text-anchor="middle" x="1196.5" y="-87.5" font-family="sans" font-size="10.00">merge_metadata_to_csv</text>
</g>
<!-- 3&#45;&gt;0 -->
<g id="edge3" class="edge">
<title>3&#45;&gt;0</title>
<path fill="none" stroke="grey" stroke-width="2" d="M1163.96,-71.88C1144.49,-61.63 1119.71,-48.58 1099.63,-38.01"/>
<polygon fill="grey" stroke="grey" stroke-width="2" points="1101.25,-34.91 1090.77,-33.35 1097.99,-41.11 1101.25,-34.91"/>
</g>
<!-- 4 -->
<g id="node5" class="node">
<title>4</title>
<path fill="none" stroke="#78d856" stroke-width="2" d="M171,-196C171,-196 12,-196 12,-196 6,-196 0,-190 0,-184 0,-184 0,-156 0,-156 0,-150 6,-144 12,-144 12,-144 171,-144 171,-144 177,-144 183,-150 183,-156 183,-156 183,-184 183,-184 183,-190 177,-196 171,-196"/>
<text text-anchor="middle" x="91.5" y="-184" font-family="sans" font-size="10.00">extract_metadata</text>
<text text-anchor="middle" x="91.5" y="-173" font-family="sans" font-size="10.00">camera: 1</text>
<text text-anchor="middle" x="91.5" y="-162" font-family="sans" font-size="10.00">rawmov: NINJAV_S001_S001_T001</text>
<text text-anchor="middle" x="91.5" y="-151" font-family="sans" font-size="10.00">session: ramalhete_Sep21</text>
</g>
<!-- 4&#45;&gt;3 -->
<g id="edge4" class="edge">
<title>4&#45;&gt;3</title>
<path fill="none" stroke="grey" stroke-width="2" d="M183.17,-145.3C185.97,-144.83 188.75,-144.39 191.5,-144 596.38,-86.16 707.71,-158.91 1117.66,-107.95"/>
<polygon fill="grey" stroke="grey" stroke-width="2" points="1118.23,-111.4 1127.71,-106.68 1117.35,-104.46 1118.23,-111.4"/>
</g>
<!-- 5 -->
<g id="node6" class="node">
<title>5</title>
<path fill="none" stroke="#78d856" stroke-width="2" stroke-dasharray="5,2" d="M372,-196C372,-196 213,-196 213,-196 207,-196 201,-190 201,-184 201,-184 201,-156 201,-156 201,-150 207,-144 213,-144 213,-144 372,-144 372,-144 378,-144 384,-150 384,-156 384,-156 384,-184 384,-184 384,-190 378,-196 372,-196"/>
<text text-anchor="middle" x="292.5" y="-184" font-family="sans" font-size="10.00">extract_metadata</text>
<text text-anchor="middle" x="292.5" y="-173" font-family="sans" font-size="10.00">camera: 1</text>
<text text-anchor="middle" x="292.5" y="-162" font-family="sans" font-size="10.00">rawmov: NINJAV_S001_S001_T002</text>
<text text-anchor="middle" x="292.5" y="-151" font-family="sans" font-size="10.00">session: ramalhete_Sep21</text>
</g>
<!-- 5&#45;&gt;3 -->
<g id="edge5" class="edge">
<title>5&#45;&gt;3</title>
<path fill="none" stroke="grey" stroke-width="2" d="M384.18,-145.34C386.98,-144.86 389.76,-144.41 392.5,-144 708.79,-97.08 796.46,-149.45 1117.65,-107.96"/>
<polygon fill="grey" stroke="grey" stroke-width="2" points="1118.25,-111.41 1127.71,-106.64 1117.33,-104.47 1118.25,-111.41"/>
</g>
<!-- 6 -->
<g id="node7" class="node">
<title>6</title>
<path fill="none" stroke="#78d856" stroke-width="2" d="M573,-196C573,-196 414,-196 414,-196 408,-196 402,-190 402,-184 402,-184 402,-156 402,-156 402,-150 408,-144 414,-144 414,-144 573,-144 573,-144 579,-144 585,-150 585,-156 585,-156 585,-184 585,-184 585,-190 579,-196 573,-196"/>
<text text-anchor="middle" x="493.5" y="-184" font-family="sans" font-size="10.00">extract_metadata</text>
<text text-anchor="middle" x="493.5" y="-173" font-family="sans" font-size="10.00">camera: 1</text>
<text text-anchor="middle" x="493.5" y="-162" font-family="sans" font-size="10.00">rawmov: NINJAV_S001_S001_T003</text>
<text text-anchor="middle" x="493.5" y="-151" font-family="sans" font-size="10.00">session: ramalhete_Sep21</text>
</g>
<!-- 6&#45;&gt;3 -->
<g id="edge6" class="edge">
<title>6&#45;&gt;3</title>
<path fill="none" stroke="grey" stroke-width="2" d="M585.19,-145.41C587.99,-144.91 590.76,-144.43 593.5,-144 821.24,-108.01 885.16,-140.06 1117.57,-107.99"/>
<polygon fill="grey" stroke="grey" stroke-width="2" points="1118.28,-111.42 1127.7,-106.57 1117.31,-104.49 1118.28,-111.42"/>
</g>
<!-- 7 -->
<g id="node8" class="node">
<title>7</title>
<path fill="none" stroke="#78d856" stroke-width="2" d="M774,-196C774,-196 615,-196 615,-196 609,-196 603,-190 603,-184 603,-184 603,-156 603,-156 603,-150 609,-144 615,-144 615,-144 774,-144 774,-144 780,-144 786,-150 786,-156 786,-156 786,-184 786,-184 786,-190 780,-196 774,-196"/>
<text text-anchor="middle" x="694.5" y="-184" font-family="sans" font-size="10.00">extract_metadata</text>
<text text-anchor="middle" x="694.5" y="-173" font-family="sans" font-size="10.00">camera: 1</text>
<text text-anchor="middle" x="694.5" y="-162" font-family="sans" font-size="10.00">rawmov: NINJAV_S001_S001_T004</text>
<text text-anchor="middle" x="694.5" y="-151" font-family="sans" font-size="10.00">session: ramalhete_Sep21</text>
</g>
<!-- 7&#45;&gt;3 -->
<g id="edge7" class="edge">
<title>7&#45;&gt;3</title>
<path fill="none" stroke="grey" stroke-width="2" d="M786.22,-145.56C789,-145.01 791.77,-144.49 794.5,-144 933.9,-118.95 973.75,-130.89 1117.59,-108.04"/>
<polygon fill="grey" stroke="grey" stroke-width="2" points="1118.36,-111.46 1127.67,-106.41 1117.24,-104.55 1118.36,-111.46"/>
</g>
<!-- 8 -->
<g id="node9" class="node">
<title>8</title>
<path fill="none" stroke="#78d856" stroke-width="2" stroke-dasharray="5,2" d="M975,-196C975,-196 816,-196 816,-196 810,-196 804,-190 804,-184 804,-184 804,-156 804,-156 804,-150 810,-144 816,-144 816,-144 975,-144 975,-144 981,-144 987,-150 987,-156 987,-156 987,-184 987,-184 987,-190 981,-196 975,-196"/>
<text text-anchor="middle" x="895.5" y="-184" font-family="sans" font-size="10.00">extract_metadata</text>
<text text-anchor="middle" x="895.5" y="-173" font-family="sans" font-size="10.00">camera: 1</text>
<text text-anchor="middle" x="895.5" y="-162" font-family="sans" font-size="10.00">rawmov: NINJAV_S001_S001_T005</text>
<text text-anchor="middle" x="895.5" y="-151" font-family="sans" font-size="10.00">session: ramalhete_Sep21</text>
</g>
<!-- 8&#45;&gt;3 -->
<g id="edge8" class="edge">
<title>8&#45;&gt;3</title>
<path fill="none" stroke="grey" stroke-width="2" d="M987.04,-145.28C1029.86,-134.18 1080.25,-121.13 1120.87,-110.6"/>
<polygon fill="grey" stroke="grey" stroke-width="2" points="1121.91,-113.95 1130.71,-108.05 1120.15,-107.17 1121.91,-113.95"/>
</g>
<!-- 9 -->
<g id="node10" class="node">
<title>9</title>
<path fill="none" stroke="#78d856" stroke-width="2" stroke-dasharray="5,2" d="M1176,-196C1176,-196 1017,-196 1017,-196 1011,-196 1005,-190 1005,-184 1005,-184 1005,-156 1005,-156 1005,-150 1011,-144 1017,-144 1017,-144 1176,-144 1176,-144 1182,-144 1188,-150 1188,-156 1188,-156 1188,-184 1188,-184 1188,-190 1182,-196 1176,-196"/>
<text text-anchor="middle" x="1096.5" y="-184" font-family="sans" font-size="10.00">extract_metadata</text>
<text text-anchor="middle" x="1096.5" y="-173" font-family="sans" font-size="10.00">camera: 1</text>
<text text-anchor="middle" x="1096.5" y="-162" font-family="sans" font-size="10.00">rawmov: NINJAV_S001_S001_T006</text>
<text text-anchor="middle" x="1096.5" y="-151" font-family="sans" font-size="10.00">session: ramalhete_Sep21</text>
</g>
<!-- 9&#45;&gt;3 -->
<g id="edge9" class="edge">
<title>9&#45;&gt;3</title>
<path fill="none" stroke="grey" stroke-width="2" d="M1128.69,-143.89C1140.85,-134.41 1154.61,-123.67 1166.56,-114.36"/>
<polygon fill="grey" stroke="grey" stroke-width="2" points="1168.75,-117.08 1174.49,-108.17 1164.45,-111.56 1168.75,-117.08"/>
</g>
<!-- 10 -->
<g id="node11" class="node">
<title>10</title>
<path fill="none" stroke="#78d856" stroke-width="2" d="M1377,-196C1377,-196 1218,-196 1218,-196 1212,-196 1206,-190 1206,-184 1206,-184 1206,-156 1206,-156 1206,-150 1212,-144 1218,-144 1218,-144 1377,-144 1377,-144 1383,-144 1389,-150 1389,-156 1389,-156 1389,-184 1389,-184 1389,-190 1383,-196 1377,-196"/>
<text text-anchor="middle" x="1297.5" y="-184" font-family="sans" font-size="10.00">extract_metadata</text>
<text text-anchor="middle" x="1297.5" y="-173" font-family="sans" font-size="10.00">camera: 2</text>
<text text-anchor="middle" x="1297.5" y="-162" font-family="sans" font-size="10.00">rawmov: NINJAV_S001_S001_T001</text>
<text text-anchor="middle" x="1297.5" y="-151" font-family="sans" font-size="10.00">session: ramalhete_Sep21</text>
</g>
<!-- 10&#45;&gt;3 -->
<g id="edge10" class="edge">
<title>10&#45;&gt;3</title>
<path fill="none" stroke="grey" stroke-width="2" d="M1264.99,-143.89C1252.71,-134.41 1238.8,-123.67 1226.74,-114.36"/>
<polygon fill="grey" stroke="grey" stroke-width="2" points="1228.79,-111.51 1218.73,-108.17 1224.51,-117.05 1228.79,-111.51"/>
</g>
<!-- 11 -->
<g id="node12" class="node">
<title>11</title>
<path fill="none" stroke="#78d856" stroke-width="2" d="M1578,-196C1578,-196 1419,-196 1419,-196 1413,-196 1407,-190 1407,-184 1407,-184 1407,-156 1407,-156 1407,-150 1413,-144 1419,-144 1419,-144 1578,-144 1578,-144 1584,-144 1590,-150 1590,-156 1590,-156 1590,-184 1590,-184 1590,-190 1584,-196 1578,-196"/>
<text text-anchor="middle" x="1498.5" y="-184" font-family="sans" font-size="10.00">extract_metadata</text>
<text text-anchor="middle" x="1498.5" y="-173" font-family="sans" font-size="10.00">camera: 2</text>
<text text-anchor="middle" x="1498.5" y="-162" font-family="sans" font-size="10.00">rawmov: NINJAV_S001_S001_T002</text>
<text text-anchor="middle" x="1498.5" y="-151" font-family="sans" font-size="10.00">session: ramalhete_Sep21</text>
</g>
<!-- 11&#45;&gt;3 -->
<g id="edge11" class="edge">
<title>11&#45;&gt;3</title>
<path fill="none" stroke="grey" stroke-width="2" d="M1406.66,-145.28C1363.7,-134.18 1313.14,-121.13 1272.38,-110.6"/>
<polygon fill="grey" stroke="grey" stroke-width="2" points="1273.07,-107.16 1262.51,-108.05 1271.32,-113.94 1273.07,-107.16"/>
</g>
<!-- 12 -->
<g id="node13" class="node">
<title>12</title>
<path fill="none" stroke="#78d856" stroke-width="2" stroke-dasharray="5,2" d="M1779,-196C1779,-196 1620,-196 1620,-196 1614,-196 1608,-190 1608,-184 1608,-184 1608,-156 1608,-156 1608,-150 1614,-144 1620,-144 1620,-144 1779,-144 1779,-144 1785,-144 1791,-150 1791,-156 1791,-156 1791,-184 1791,-184 1791,-190 1785,-196 1779,-196"/>
<text text-anchor="middle" x="1699.5" y="-184" font-family="sans" font-size="10.00">extract_metadata</text>
<text text-anchor="middle" x="1699.5" y="-173" font-family="sans" font-size="10.00">camera: 2</text>
<text text-anchor="middle" x="1699.5" y="-162" font-family="sans" font-size="10.00">rawmov: NINJAV_S001_S001_T003</text>
<text text-anchor="middle" x="1699.5" y="-151" font-family="sans" font-size="10.00">session: ramalhete_Sep21</text>
</g>
<!-- 12&#45;&gt;3 -->
<g id="edge12" class="edge">
<title>12&#45;&gt;3</title>
<path fill="none" stroke="grey" stroke-width="2" d="M1607.77,-145.64C1604.99,-145.07 1602.22,-144.52 1599.5,-144 1487.81,-122.77 1357.09,-107.27 1275.52,-98.7"/>
<polygon fill="grey" stroke="grey" stroke-width="2" points="1275.64,-95.19 1265.33,-97.63 1274.92,-102.15 1275.64,-95.19"/>
</g>
<!-- 13 -->
<g id="node14" class="node">
<title>13</title>
<path fill="none" stroke="#78d856" stroke-width="2" d="M1980,-196C1980,-196 1821,-196 1821,-196 1815,-196 1809,-190 1809,-184 1809,-184 1809,-156 1809,-156 1809,-150 1815,-144 1821,-144 1821,-144 1980,-144 1980,-144 1986,-144 1992,-150 1992,-156 1992,-156 1992,-184 1992,-184 1992,-190 1986,-196 1980,-196"/>
<text text-anchor="middle" x="1900.5" y="-184" font-family="sans" font-size="10.00">extract_metadata</text>
<text text-anchor="middle" x="1900.5" y="-173" font-family="sans" font-size="10.00">camera: 2</text>
<text text-anchor="middle" x="1900.5" y="-162" font-family="sans" font-size="10.00">rawmov: NINJAV_S001_S001_T006</text>
<text text-anchor="middle" x="1900.5" y="-151" font-family="sans" font-size="10.00">session: ramalhete_Sep21</text>
</g>
<!-- 13&#45;&gt;3 -->
<g id="edge13" class="edge">
<title>13&#45;&gt;3</title>
<path fill="none" stroke="grey" stroke-width="2" d="M1808.8,-145.48C1806.01,-144.95 1803.24,-144.46 1800.5,-144 1613.82,-112.68 1391.38,-99.21 1275.53,-93.96"/>
<polygon fill="grey" stroke="grey" stroke-width="2" points="1275.48,-90.46 1265.33,-93.51 1275.17,-97.45 1275.48,-90.46"/>
</g>
<!-- 14 -->
<g id="node15" class="node">
<title>14</title>
<path fill="none" stroke="#78d856" stroke-width="2" d="M2181,-196C2181,-196 2022,-196 2022,-196 2016,-196 2010,-190 2010,-184 2010,-184 2010,-156 2010,-156 2010,-150 2016,-144 2022,-144 2022,-144 2181,-144 2181,-144 2187,-144 2193,-150 2193,-156 2193,-156 2193,-184 2193,-184 2193,-190 2187,-196 2181,-196"/>
<text text-anchor="middle" x="2101.5" y="-184" font-family="sans" font-size="10.00">extract_metadata</text>
<text text-anchor="middle" x="2101.5" y="-173" font-family="sans" font-size="10.00">camera: 2</text>
<text text-anchor="middle" x="2101.5" y="-162" font-family="sans" font-size="10.00">rawmov: NINJAV_S001_S001_T004</text>
<text text-anchor="middle" x="2101.5" y="-151" font-family="sans" font-size="10.00">session: ramalhete_Sep21</text>
</g>
<!-- 14&#45;&gt;3 -->
<g id="edge14" class="edge">
<title>14&#45;&gt;3</title>
<path fill="none" stroke="grey" stroke-width="2" d="M2009.81,-145.4C2007.02,-144.9 2004.24,-144.43 2001.5,-144 1737.49,-102.65 1419.86,-93.5 1275.19,-91.52"/>
<polygon fill="grey" stroke="grey" stroke-width="2" points="1275.12,-88.01 1265.07,-91.39 1275.02,-95.01 1275.12,-88.01"/>
</g>
<!-- 15 -->
<g id="node16" class="node">
<title>15</title>
<path fill="none" stroke="#78d856" stroke-width="2" stroke-dasharray="5,2" d="M2382,-196C2382,-196 2223,-196 2223,-196 2217,-196 2211,-190 2211,-184 2211,-184 2211,-156 2211,-156 2211,-150 2217,-144 2223,-144 2223,-144 2382,-144 2382,-144 2388,-144 2394,-150 2394,-156 2394,-156 2394,-184 2394,-184 2394,-190 2388,-196 2382,-196"/>
<text text-anchor="middle" x="2302.5" y="-184" font-family="sans" font-size="10.00">extract_metadata</text>
<text text-anchor="middle" x="2302.5" y="-173" font-family="sans" font-size="10.00">camera: 2</text>
<text text-anchor="middle" x="2302.5" y="-162" font-family="sans" font-size="10.00">rawmov: NINJAV_S001_S001_T005</text>
<text text-anchor="middle" x="2302.5" y="-151" font-family="sans" font-size="10.00">session: ramalhete_Sep21</text>
</g>
<!-- 15&#45;&gt;3 -->
<g id="edge15" class="edge">
<title>15&#45;&gt;3</title>
<path fill="none" stroke="grey" stroke-width="2" d="M2210.82,-145.35C2208.02,-144.86 2205.24,-144.41 2202.5,-144 2024.01,-117.24 1479.44,-99.18 1275.08,-93.18"/>
<polygon fill="grey" stroke="grey" stroke-width="2" points="1275.13,-89.68 1265.03,-92.89 1274.92,-96.68 1275.13,-89.68"/>
</g>
</g>
</svg>
