<?xml version="1.0" encoding="UTF-8" standalone="no"?>
<!DOCTYPE svg PUBLIC "-//W3C//DTD SVG 1.1//EN"
 "http://www.w3.org/Graphics/SVG/1.1/DTD/svg11.dtd">
<!-- Generated by graphviz version 2.50.0 (20220117.2223)
 -->
<!-- Title: snakemake_dag Pages: 1 -->
<svg width="302pt" height="188pt"
 viewBox="0.00 0.00 301.50 188.00" xmlns="http://www.w3.org/2000/svg" xmlns:xlink="http://www.w3.org/1999/xlink">
<g id="graph0" class="graph" transform="scale(1 1) rotate(0) translate(4 184)">
<title>snakemake_dag</title>
<polygon fill="white" stroke="transparent" points="-4,4 -4,-184 297.5,-184 297.5,4 -4,4"/>
<!-- 0 -->
<g id="node1" class="node">
<title>0</title>
<path fill="none" stroke="#d85656" stroke-width="2" d="M157.5,-36C157.5,-36 127.5,-36 127.5,-36 121.5,-36 115.5,-30 115.5,-24 115.5,-24 115.5,-12 115.5,-12 115.5,-6 121.5,0 127.5,0 127.5,0 157.5,0 157.5,0 163.5,0 169.5,-6 169.5,-12 169.5,-12 169.5,-24 169.5,-24 169.5,-30 163.5,-36 157.5,-36"/>
<text text-anchor="middle" x="142.5" y="-15.5" font-family="sans" font-size="10.00">all</text>
</g>
<!-- 1 -->
<g id="node2" class="node">
<title>1</title>
<path fill="none" stroke="#88d856" stroke-width="2" d="M125,-108C125,-108 12,-108 12,-108 6,-108 0,-102 0,-96 0,-96 0,-84 0,-84 0,-78 6,-72 12,-72 12,-72 125,-72 125,-72 131,-72 137,-78 137,-84 137,-84 137,-96 137,-96 137,-102 131,-108 125,-108"/>
<text text-anchor="middle" x="68.5" y="-87.5" font-family="sans" font-size="10.00">merge_metadata_to_csv</text>
</g>
<!-- 1&#45;&gt;0 -->
<g id="edge1" class="edge">
<title>1&#45;&gt;0</title>
<path fill="none" stroke="grey" stroke-width="2" d="M86.79,-71.7C95.93,-63.05 107.14,-52.45 117.1,-43.03"/>
<polygon fill="grey" stroke="grey" stroke-width="2" points="119.56,-45.52 124.42,-36.1 114.75,-40.43 119.56,-45.52"/>
</g>
<!-- 2 -->
<g id="node3" class="node">
<title>2</title>
<path fill="none" stroke="#56c1d8" stroke-width="2" d="M108.5,-180C108.5,-180 28.5,-180 28.5,-180 22.5,-180 16.5,-174 16.5,-168 16.5,-168 16.5,-156 16.5,-156 16.5,-150 22.5,-144 28.5,-144 28.5,-144 108.5,-144 108.5,-144 114.5,-144 120.5,-150 120.5,-156 120.5,-156 120.5,-168 120.5,-168 120.5,-174 114.5,-180 108.5,-180"/>
<text text-anchor="middle" x="68.5" y="-159.5" font-family="sans" font-size="10.00">extract_metadata</text>
</g>
<!-- 2&#45;&gt;1 -->
<g id="edge3" class="edge">
<title>2&#45;&gt;1</title>
<path fill="none" stroke="grey" stroke-width="2" d="M68.5,-143.7C68.5,-135.98 68.5,-126.71 68.5,-118.11"/>
<polygon fill="grey" stroke="grey" stroke-width="2" points="72,-118.1 68.5,-108.1 65,-118.1 72,-118.1"/>
</g>
<!-- 3 -->
<g id="node4" class="node">
<title>3</title>
<path fill="none" stroke="#d8bc56" stroke-width="2" d="M265.5,-108C265.5,-108 167.5,-108 167.5,-108 161.5,-108 155.5,-102 155.5,-96 155.5,-96 155.5,-84 155.5,-84 155.5,-78 161.5,-72 167.5,-72 167.5,-72 265.5,-72 265.5,-72 271.5,-72 277.5,-78 277.5,-84 277.5,-84 277.5,-96 277.5,-96 277.5,-102 271.5,-108 265.5,-108"/>
<text text-anchor="middle" x="216.5" y="-87.5" font-family="sans" font-size="10.00">convert_mov_to_mp4</text>
</g>
<!-- 3&#45;&gt;0 -->
<g id="edge2" class="edge">
<title>3&#45;&gt;0</title>
<path fill="none" stroke="grey" stroke-width="2" d="M198.21,-71.7C189.07,-63.05 177.86,-52.45 167.9,-43.03"/>
<polygon fill="grey" stroke="grey" stroke-width="2" points="170.25,-40.43 160.58,-36.1 165.44,-45.52 170.25,-40.43"/>
</g>
<!-- 4 -->
<g id="node5" class="node">
<title>4</title>
<path fill="none" stroke="#56d88a" stroke-width="2" d="M281.5,-180C281.5,-180 151.5,-180 151.5,-180 145.5,-180 139.5,-174 139.5,-168 139.5,-168 139.5,-156 139.5,-156 139.5,-150 145.5,-144 151.5,-144 151.5,-144 281.5,-144 281.5,-144 287.5,-144 293.5,-150 293.5,-156 293.5,-156 293.5,-168 293.5,-168 293.5,-174 287.5,-180 281.5,-180"/>
<text text-anchor="middle" x="216.5" y="-159.5" font-family="sans" font-size="10.00">build_singularity_image_file</text>
</g>
<!-- 4&#45;&gt;3 -->
<g id="edge4" class="edge">
<title>4&#45;&gt;3</title>
<path fill="none" stroke="grey" stroke-width="2" d="M216.5,-143.7C216.5,-135.98 216.5,-126.71 216.5,-118.11"/>
<polygon fill="grey" stroke="grey" stroke-width="2" points="220,-118.1 216.5,-108.1 213,-118.1 220,-118.1"/>
</g>
</g>
</svg>
